<?xml version="1.0" encoding="UTF-8"?>
<svg xmlns="http://www.w3.org/2000/svg" width="512" height="512" viewBox="0 0 512 512" role="img" aria-labelledby="title desc">
  <title id="title">ED Expedition logo</title>
  <desc id="desc">A folded map icon with a transparent galaxy cutout, filled in orange #FF7800.</desc>
  <path fill="#FF7800" fill-rule="evenodd" clip-rule="evenodd" d="
    M 73.085 117.997 L 73.085 118.405 L 71.043 121.263 L 71.043 122.080 L 70.226 123.713 L 70.226 124.938 L 69.818 125.346 L 69.818 412.376 L 70.226 412.785 L 70.635 415.234 L 71.451 416.868 L 73.085 418.909 L 73.493 418.909 L 75.534 420.542 L 77.984 420.951 L 78.392 421.359 L 81.250 421.359 L 81.659 420.951 L 83.292 420.951 L 83.700 420.542 L 84.517 420.542 L 88.191 418.501 L 89.008 418.501 L 92.683 416.459 L 93.499 416.459 L 97.990 414.010 L 98.807 414.010 L 103.298 411.560 L 104.115 411.560 L 108.606 409.110 L 109.423 409.110 L 114.730 406.252 L 115.547 406.252 L 127.796 400.128 L 128.612 400.128 L 140.045 394.411 L 140.861 394.411 L 144.536 392.370 L 145.352 392.370 L 150.660 389.512 L 151.477 389.512 L 156.785 386.654 L 157.601 386.654 L 162.501 384.204 L 164.542 384.204 L 168.217 386.246 L 169.033 386.246 L 171.075 387.470 L 171.892 387.470 L 176.383 389.920 L 177.199 389.920 L 186.182 394.411 L 186.998 394.411 L 192.306 397.270 L 193.123 397.270 L 196.797 399.311 L 197.614 399.311 L 205.780 403.394 L 206.596 403.394 L 211.088 405.844 L 211.904 405.844 L 220.070 409.927 L 220.887 409.927 L 225.378 412.376 L 226.195 412.376 L 229.869 414.418 L 230.686 414.418 L 233.544 416.051 L 234.360 416.051 L 238.035 418.093 L 238.852 418.093 L 242.526 420.134 L 243.343 420.134 L 247.018 422.175 L 247.834 422.175 L 251.509 424.217 L 252.734 424.217 L 253.142 424.625 L 258.858 424.625 L 259.266 424.217 L 262.533 423.400 L 266.207 421.359 L 267.024 421.359 L 272.740 418.501 L 273.557 418.501 L 283.356 413.601 L 284.172 413.601 L 287.030 411.968 L 287.847 411.968 L 296.829 407.477 L 297.646 407.477 L 300.504 405.844 L 301.321 405.844 L 310.303 401.352 L 311.120 401.352 L 314.794 399.311 L 315.611 399.311 L 317.652 398.086 L 318.469 398.086 L 322.144 396.045 L 322.960 396.045 L 325.818 394.411 L 326.635 394.411 L 329.493 392.778 L 330.309 392.778 L 334.801 390.329 L 335.617 390.329 L 337.659 389.104 L 338.475 389.104 L 342.150 387.062 L 342.967 387.062 L 348.683 384.204 L 350.316 384.204 L 350.724 384.612 L 351.541 384.612 L 364.606 391.145 L 365.423 391.145 L 371.547 394.411 L 372.364 394.411 L 380.121 398.494 L 380.938 398.494 L 386.246 401.352 L 387.062 401.352 L 394.003 405.027 L 394.820 405.027 L 400.944 408.293 L 401.761 408.293 L 407.069 411.152 L 407.885 411.152 L 413.193 414.010 L 414.010 414.010 L 420.134 417.276 L 420.951 417.276 L 428.300 420.951 L 429.525 420.951 L 429.933 421.359 L 433.199 421.359 L 433.608 420.951 L 434.833 420.951 L 437.282 419.726 L 439.324 418.093 L 441.365 414.418 L 441.365 412.785 L 441.774 412.376 L 441.774 125.346 L 441.365 124.938 L 441.365 123.305 L 440.957 122.896 L 440.957 122.080 L 440.549 121.671 L 440.140 120.038 L 436.874 116.364 L 425.442 110.648 L 424.625 110.648 L 420.951 108.606 L 420.134 108.606 L 414.826 105.748 L 414.010 105.748 L 409.518 103.298 L 408.702 103.298 L 405.027 101.257 L 404.211 101.257 L 399.719 98.807 L 398.903 98.807 L 394.411 96.357 L 393.595 96.357 L 385.429 92.274 L 384.612 92.274 L 381.754 90.641 L 380.938 90.641 L 376.447 88.191 L 375.630 88.191 L 371.139 85.742 L 370.322 85.742 L 366.648 83.700 L 365.831 83.700 L 356.848 79.209 L 356.032 79.209 L 353.582 77.984 L 351.132 77.984 L 350.724 77.576 L 349.091 77.576 L 348.683 77.984 L 346.233 77.984 L 345.825 78.392 L 345.008 78.392 L 342.150 80.026 L 341.333 80.026 L 334.801 83.292 L 333.984 83.292 L 331.126 84.925 L 330.309 84.925 L 326.635 86.967 L 325.818 86.967 L 322.960 88.600 L 322.144 88.600 L 318.469 90.641 L 317.652 90.641 L 314.794 92.274 L 313.978 92.274 L 310.303 94.316 L 309.486 94.316 L 305.812 96.357 L 304.995 96.357 L 302.954 97.582 L 302.137 97.582 L 298.463 99.624 L 297.646 99.624 L 294.788 101.257 L 293.971 101.257 L 290.297 103.298 L 289.480 103.298 L 286.622 104.931 L 285.805 104.931 L 282.947 106.565 L 282.131 106.565 L 273.965 110.648 L 273.148 110.648 L 270.290 112.281 L 269.474 112.281 L 268.249 113.097 L 267.432 113.097 L 259.266 117.180 L 258.450 117.180 L 256.408 118.405 L 255.592 118.405 L 252.734 116.772 L 251.917 116.772 L 249.059 115.139 L 248.242 115.139 L 242.935 112.281 L 242.118 112.281 L 238.443 110.239 L 237.627 110.239 L 229.461 106.156 L 228.644 106.156 L 224.970 104.115 L 224.153 104.115 L 220.478 102.073 L 219.662 102.073 L 215.171 99.624 L 214.354 99.624 L 207.005 95.949 L 206.188 95.949 L 202.514 93.907 L 201.697 93.907 L 198.022 91.866 L 197.206 91.866 L 193.531 89.825 L 192.715 89.825 L 185.365 86.150 L 184.549 86.150 L 181.691 84.517 L 180.874 84.517 L 170.258 79.209 L 169.442 79.209 L 168.217 78.392 L 166.992 78.392 L 166.584 77.984 L 162.501 77.576 L 162.093 77.984 L 160.051 77.984 L 159.643 78.392 L 158.418 78.392 L 157.193 79.209 L 156.376 79.209 L 149.844 82.475 L 149.027 82.475 L 143.311 85.333 L 142.494 85.333 L 138.820 87.375 L 138.003 87.375 L 135.145 89.008 L 134.329 89.008 L 131.470 90.641 L 130.654 90.641 L 120.855 95.541 L 120.038 95.541 L 112.689 99.215 L 111.872 99.215 L 108.198 101.257 L 107.381 101.257 L 103.707 103.298 L 102.890 103.298 L 100.032 104.931 L 99.215 104.931 L 97.174 106.156 L 96.357 106.156 L 91.866 108.606 L 91.049 108.606 L 87.375 110.648 L 86.558 110.648 L 79.209 114.322 L 78.392 114.322 L 76.759 115.139 L 74.718 116.772 L 74.309 116.772 Z
    M 337.659 225.786 L 337.659 226.195 L 339.292 227.828 L 339.292 228.236 L 340.925 230.278 L 342.967 234.360 L 342.967 235.177 L 343.783 236.810 L 343.783 238.035 L 344.191 238.443 L 344.191 240.077 L 344.600 240.485 L 344.600 243.751 L 345.008 244.159 L 345.008 247.834 L 344.600 248.242 L 344.600 251.100 L 344.191 251.509 L 344.191 253.142 L 343.783 253.550 L 343.783 254.775 L 342.967 256.408 L 342.558 258.858 L 341.742 260.083 L 341.742 260.900 L 340.517 262.941 L 340.517 263.758 L 338.067 268.657 L 337.250 269.474 L 336.842 270.699 L 335.617 271.923 L 335.209 273.148 L 334.392 273.965 L 333.576 275.598 L 332.351 276.823 L 332.351 277.231 L 330.718 278.864 L 330.718 279.273 L 329.085 280.906 L 329.085 281.314 L 325.002 285.397 L 325.002 285.805 L 322.960 287.847 L 322.552 287.847 L 316.836 293.563 L 316.427 293.563 L 313.978 296.013 L 313.569 296.013 L 311.936 297.646 L 311.528 297.646 L 309.895 299.279 L 309.486 299.279 L 306.628 301.729 L 304.995 302.545 L 303.770 303.770 L 303.362 303.770 L 297.646 307.853 L 296.421 308.262 L 295.604 309.078 L 292.338 310.711 L 290.297 312.344 L 287.439 313.569 L 286.622 314.386 L 273.557 320.919 L 272.740 320.919 L 271.515 321.735 L 270.699 321.735 L 268.657 322.960 L 266.616 323.368 L 262.533 325.410 L 260.491 325.818 L 259.266 326.635 L 258.450 326.635 L 258.041 327.043 L 257.225 327.043 L 256.817 327.451 L 256.000 327.451 L 255.592 327.860 L 254.775 327.860 L 253.142 328.676 L 251.917 328.676 L 251.509 329.085 L 250.692 329.085 L 249.059 329.901 L 247.834 329.901 L 246.201 330.718 L 244.976 330.718 L 244.568 331.126 L 243.343 331.126 L 242.935 331.534 L 241.710 331.534 L 241.301 331.943 L 240.077 331.943 L 239.668 332.351 L 238.443 332.351 L 238.035 332.759 L 236.402 332.759 L 235.994 333.167 L 234.769 333.167 L 234.360 333.576 L 232.319 333.576 L 231.911 333.984 L 230.278 333.984 L 229.869 334.392 L 227.828 334.392 L 227.419 334.801 L 224.561 334.801 L 223.745 333.984 L 223.745 332.759 L 224.561 331.943 L 226.195 331.126 L 228.236 330.718 L 229.461 329.901 L 230.278 329.901 L 231.502 329.085 L 232.319 329.085 L 233.544 328.268 L 234.360 328.268 L 235.585 327.451 L 236.402 327.451 L 243.751 323.777 L 244.568 323.777 L 251.100 320.510 L 251.917 319.694 L 252.734 319.694 L 254.367 318.469 L 259.675 316.019 L 260.491 315.203 L 264.574 313.161 L 266.616 311.528 L 267.841 311.120 L 268.657 310.303 L 271.515 308.670 L 272.740 307.445 L 275.598 305.812 L 276.823 304.587 L 278.456 303.770 L 279.681 302.545 L 280.089 302.545 L 281.314 301.321 L 281.722 301.321 L 282.947 300.096 L 283.356 300.096 L 284.989 298.463 L 285.397 298.463 L 287.030 296.829 L 287.439 296.829 L 289.888 294.380 L 290.297 294.380 L 293.971 290.705 L 294.380 290.705 L 303.362 281.722 L 303.362 281.314 L 305.812 278.864 L 305.812 278.456 L 309.078 274.781 L 309.078 274.373 L 310.303 273.148 L 311.120 271.515 L 313.161 269.065 L 313.569 267.841 L 315.611 264.982 L 318.469 259.266 L 318.469 258.450 L 319.285 257.225 L 319.285 256.408 L 319.694 256.000 L 319.694 255.183 L 320.102 254.775 L 320.102 253.959 L 320.919 252.325 L 320.919 250.284 L 321.327 249.876 L 321.327 243.343 L 320.919 242.935 L 320.919 241.301 L 320.510 240.893 L 320.510 240.077 L 318.469 236.402 L 314.794 232.727 L 308.670 229.461 L 307.853 229.461 L 306.220 228.644 L 302.954 228.236 L 302.545 227.828 L 300.912 227.828 L 300.504 227.419 L 296.421 227.419 L 296.013 227.011 L 289.888 227.011 L 289.480 227.419 L 284.989 227.419 L 284.581 227.828 L 282.131 227.828 L 281.722 228.236 L 280.089 228.236 L 279.681 228.644 L 278.048 228.644 L 277.640 229.053 L 276.006 229.053 L 275.598 229.461 L 274.373 229.461 L 273.965 229.869 L 271.107 230.278 L 270.699 230.686 L 269.882 230.686 L 269.474 231.094 L 268.657 231.094 L 268.249 231.502 L 266.616 231.911 L 266.616 232.727 L 267.024 233.136 L 276.006 233.136 L 276.415 233.544 L 279.681 233.544 L 280.089 233.952 L 282.131 233.952 L 282.539 234.360 L 283.764 234.360 L 284.172 234.769 L 287.439 235.585 L 290.705 237.219 L 293.155 239.260 L 293.155 239.668 L 294.788 241.301 L 295.604 242.935 L 296.013 245.384 L 296.421 245.793 L 296.421 248.651 L 296.013 249.059 L 296.013 251.509 L 295.604 251.917 L 295.604 252.734 L 292.746 258.450 L 291.522 259.675 L 291.522 260.083 L 290.297 261.308 L 290.297 261.716 L 282.131 269.882 L 281.722 269.882 L 279.681 271.923 L 279.273 271.923 L 277.640 273.557 L 274.781 275.190 L 273.557 276.415 L 273.148 276.415 L 269.882 278.864 L 268.657 279.273 L 267.841 280.089 L 266.616 280.498 L 265.799 281.314 L 264.574 281.722 L 263.758 282.539 L 260.083 284.172 L 259.266 284.989 L 252.734 288.255 L 251.917 288.255 L 249.876 289.480 L 249.059 289.480 L 244.159 291.930 L 242.118 292.338 L 238.852 293.971 L 238.035 293.971 L 237.627 294.380 L 236.810 294.380 L 236.402 294.788 L 235.585 294.788 L 235.177 295.196 L 234.360 295.196 L 233.952 295.604 L 233.136 295.604 L 232.727 296.013 L 231.911 296.013 L 231.502 296.421 L 230.686 296.421 L 229.053 297.238 L 226.195 297.646 L 224.561 298.463 L 223.337 298.463 L 222.928 298.871 L 221.703 298.871 L 221.295 299.279 L 220.070 299.279 L 219.662 299.687 L 218.029 299.687 L 217.620 300.096 L 215.987 300.096 L 215.579 300.504 L 213.537 300.504 L 213.129 300.912 L 211.088 300.912 L 210.679 301.321 L 208.230 301.321 L 207.821 301.729 L 204.555 301.729 L 204.147 302.137 L 187.815 302.137 L 187.407 301.729 L 184.140 301.729 L 183.732 301.321 L 181.691 301.321 L 181.282 300.912 L 177.199 300.504 L 176.791 300.096 L 175.566 300.096 L 175.158 299.687 L 173.933 299.687 L 173.525 299.279 L 172.300 299.279 L 171.892 298.871 L 169.850 298.463 L 168.625 297.646 L 167.809 297.646 L 166.584 296.829 L 165.767 296.829 L 161.684 294.788 L 160.868 293.971 L 159.643 293.563 L 155.560 290.297 L 155.152 290.297 L 152.293 287.439 L 151.885 287.439 L 148.619 283.764 L 148.619 283.356 L 146.577 280.906 L 143.719 275.190 L 143.719 274.373 L 142.903 272.740 L 142.903 271.515 L 142.494 271.107 L 142.494 269.474 L 142.086 269.065 L 142.086 267.432 L 141.678 267.024 L 141.678 258.858 L 142.086 258.450 L 142.086 256.000 L 142.494 255.592 L 142.903 252.325 L 143.311 251.917 L 143.311 251.100 L 143.719 250.692 L 144.536 247.426 L 145.761 245.384 L 145.761 244.568 L 147.802 240.485 L 148.619 239.668 L 149.844 237.219 L 150.660 236.402 L 152.293 233.544 L 153.518 232.319 L 153.518 231.911 L 157.601 227.419 L 157.601 227.011 L 165.359 219.254 L 165.767 219.254 L 168.217 216.804 L 168.625 216.804 L 170.667 214.762 L 171.075 214.762 L 172.300 213.537 L 172.708 213.537 L 174.341 211.904 L 174.750 211.904 L 177.199 209.863 L 180.057 208.230 L 181.282 207.005 L 182.507 206.596 L 184.549 204.963 L 185.774 204.555 L 186.590 203.738 L 189.856 202.105 L 190.673 201.289 L 193.531 200.064 L 194.348 199.247 L 202.514 195.164 L 203.330 195.164 L 206.188 193.531 L 207.005 193.531 L 209.046 192.306 L 209.863 192.306 L 213.946 190.265 L 217.212 189.448 L 218.437 188.632 L 220.478 188.223 L 221.703 187.407 L 222.520 187.407 L 224.153 186.590 L 225.378 186.590 L 226.603 185.774 L 227.828 185.774 L 229.461 184.957 L 230.686 184.957 L 232.319 184.140 L 233.544 184.140 L 233.952 183.732 L 235.177 183.732 L 235.585 183.324 L 236.810 183.324 L 237.219 182.915 L 240.893 182.507 L 241.301 182.099 L 244.568 181.691 L 244.976 181.282 L 247.018 181.282 L 247.834 182.099 L 247.834 183.324 L 247.018 184.140 L 245.384 184.549 L 244.976 184.957 L 244.159 184.957 L 243.751 185.365 L 242.935 185.365 L 240.893 186.590 L 238.852 186.998 L 236.810 188.223 L 235.994 188.223 L 233.952 189.448 L 233.136 189.448 L 230.278 191.081 L 229.461 191.081 L 221.295 195.164 L 220.478 195.981 L 216.804 197.614 L 215.987 198.431 L 213.946 199.247 L 211.904 200.880 L 210.679 201.289 L 209.863 202.105 L 208.638 202.514 L 207.821 203.330 L 207.413 203.330 L 206.596 204.147 L 203.738 205.780 L 202.514 207.005 L 200.880 207.821 L 199.656 209.046 L 199.247 209.046 L 195.164 212.313 L 194.756 212.313 L 192.715 214.354 L 192.306 214.354 L 190.673 215.987 L 190.265 215.987 L 186.182 220.070 L 185.774 220.070 L 178.424 227.828 L 178.424 228.236 L 176.383 230.278 L 176.383 230.686 L 175.158 231.911 L 174.341 233.544 L 172.300 235.994 L 171.892 237.219 L 171.075 238.035 L 170.667 239.260 L 169.850 240.077 L 168.625 242.526 L 168.625 243.343 L 166.992 246.201 L 166.992 247.018 L 166.175 248.651 L 166.175 249.876 L 165.767 250.284 L 165.767 251.509 L 165.359 251.917 L 165.359 253.550 L 164.951 253.959 L 164.951 260.900 L 165.359 261.308 L 165.767 264.574 L 166.175 264.982 L 166.175 265.799 L 166.584 266.207 L 166.584 267.024 L 167.400 268.657 L 168.217 269.474 L 169.033 271.107 L 170.667 272.740 L 170.667 273.148 L 172.708 275.190 L 173.116 275.190 L 175.566 277.231 L 178.424 278.456 L 179.241 279.273 L 180.057 279.273 L 181.282 280.089 L 182.099 280.089 L 182.507 280.498 L 183.324 280.498 L 184.957 281.314 L 186.182 281.314 L 186.590 281.722 L 187.815 281.722 L 188.223 282.131 L 190.265 282.131 L 190.673 282.539 L 195.164 282.539 L 195.573 282.947 L 201.697 282.947 L 202.105 282.539 L 205.780 282.539 L 206.188 282.131 L 209.046 282.131 L 209.455 281.722 L 211.496 281.722 L 211.904 281.314 L 215.171 280.906 L 215.579 280.498 L 216.804 280.498 L 217.212 280.089 L 218.437 280.089 L 218.845 279.681 L 220.478 279.273 L 220.478 278.456 L 220.070 278.048 L 218.437 278.048 L 218.029 277.640 L 214.762 277.231 L 214.354 276.823 L 211.088 276.006 L 207.821 274.373 L 207.005 273.557 L 205.372 272.740 L 202.105 269.065 L 201.289 267.432 L 201.289 266.616 L 200.472 265.391 L 200.472 263.758 L 200.064 263.349 L 200.064 260.900 L 200.472 260.491 L 200.472 258.450 L 200.880 258.041 L 200.880 256.817 L 201.697 255.592 L 201.697 254.775 L 203.330 251.509 L 204.147 250.692 L 204.963 249.059 L 206.188 247.834 L 206.188 247.426 L 213.129 240.077 L 213.537 240.077 L 215.579 238.035 L 215.987 238.035 L 217.212 236.810 L 217.620 236.810 L 218.845 235.585 L 219.254 235.585 L 220.478 234.360 L 220.887 234.360 L 222.928 232.727 L 224.153 232.319 L 228.236 229.461 L 232.727 227.419 L 233.544 226.603 L 238.443 224.153 L 239.260 224.153 L 241.301 222.928 L 242.118 222.928 L 247.018 220.478 L 247.834 220.478 L 248.242 220.070 L 251.509 219.254 L 252.734 218.437 L 253.550 218.437 L 253.959 218.029 L 254.775 218.029 L 255.183 217.620 L 256.000 217.620 L 257.633 216.804 L 258.858 216.804 L 260.491 215.987 L 263.349 215.579 L 263.758 215.171 L 266.207 214.762 L 266.616 214.354 L 267.841 214.354 L 268.249 213.946 L 269.882 213.946 L 270.290 213.537 L 271.515 213.537 L 271.923 213.129 L 273.557 213.129 L 273.965 212.721 L 275.598 212.721 L 276.006 212.313 L 278.048 212.313 L 278.456 211.904 L 280.906 211.904 L 281.314 211.496 L 284.581 211.496 L 284.989 211.088 L 289.480 211.088 L 289.888 210.679 L 299.279 210.679 L 299.687 211.088 L 304.995 211.088 L 305.404 211.496 L 308.262 211.496 L 308.670 211.904 L 310.303 211.904 L 310.711 212.313 L 314.386 212.721 L 314.794 213.129 L 315.611 213.129 L 317.244 213.946 L 319.694 214.354 L 323.777 216.396 L 324.593 216.396 L 331.126 220.070 L 334.392 222.928 L 334.801 222.928 Z
    M 270.290 185.365 L 271.107 185.365 L 271.515 184.957 L 272.332 184.957 L 272.740 184.549 L 273.557 184.549 L 275.190 183.732 L 278.048 183.324 L 279.681 182.507 L 282.539 182.099 L 282.947 181.691 L 284.581 181.691 L 284.989 181.282 L 286.214 181.282 L 286.622 180.874 L 288.255 180.874 L 288.663 180.466 L 290.297 180.466 L 290.705 180.057 L 292.746 180.057 L 293.155 179.649 L 298.463 179.241 L 298.871 178.833 L 302.137 178.833 L 302.545 178.424 L 307.037 178.424 L 307.445 178.016 L 315.203 178.016 L 315.611 177.608 L 320.510 177.608 L 320.919 178.016 L 329.901 178.016 L 330.309 178.424 L 333.984 178.424 L 334.392 178.833 L 337.250 178.833 L 337.659 179.241 L 339.700 179.241 L 340.108 179.649 L 344.600 180.057 L 345.008 180.466 L 346.641 180.466 L 347.049 180.874 L 348.274 180.874 L 348.683 181.282 L 349.907 181.282 L 350.316 181.691 L 351.541 181.691 L 351.949 182.099 L 354.807 182.507 L 356.440 183.324 L 357.665 183.324 L 358.073 183.732 L 360.115 184.140 L 361.340 184.957 L 363.381 185.365 L 364.606 186.182 L 366.648 186.590 L 377.263 191.898 L 378.080 192.715 L 378.488 192.715 L 379.305 193.531 L 382.163 195.164 L 385.429 198.022 L 385.837 198.022 L 391.962 204.147 L 391.962 204.555 L 393.187 205.780 L 393.187 206.188 L 394.411 207.413 L 394.411 207.821 L 396.045 209.863 L 398.494 214.762 L 398.494 215.579 L 399.311 216.804 L 399.311 217.620 L 400.128 219.254 L 400.128 220.887 L 400.536 221.295 L 400.536 222.928 L 400.944 223.337 L 400.944 226.195 L 401.352 226.603 L 401.352 234.360 L 400.944 234.769 L 400.944 237.627 L 400.536 238.035 L 400.536 239.668 L 400.128 240.077 L 400.128 241.301 L 399.719 241.710 L 399.719 242.935 L 399.311 243.343 L 398.494 246.609 L 396.453 250.692 L 396.453 251.509 L 395.636 252.325 L 394.003 256.000 L 393.187 256.817 L 391.553 260.083 L 389.104 262.941 L 388.287 264.574 L 382.571 270.699 L 382.571 271.107 L 378.488 275.190 L 378.080 275.190 L 374.813 278.456 L 374.405 278.456 L 372.364 280.498 L 371.955 280.498 L 367.464 284.172 L 367.056 284.172 L 360.523 288.663 L 359.298 288.663 L 358.482 287.847 L 358.482 286.622 L 361.340 283.764 L 361.340 283.356 L 364.198 280.498 L 364.198 280.089 L 368.689 275.190 L 368.689 274.781 L 369.914 273.557 L 369.914 273.148 L 373.180 268.657 L 374.813 265.391 L 375.630 264.574 L 379.305 257.225 L 379.305 256.408 L 380.121 255.183 L 380.121 254.367 L 380.530 253.959 L 380.530 253.142 L 380.938 252.734 L 380.938 251.917 L 381.346 251.509 L 381.346 250.692 L 382.163 249.059 L 382.163 247.834 L 382.571 247.426 L 382.979 243.343 L 383.388 242.935 L 383.388 240.893 L 383.796 240.485 L 383.796 232.727 L 383.388 232.319 L 383.388 229.461 L 382.979 229.053 L 382.979 227.419 L 382.571 227.011 L 382.571 225.786 L 382.163 225.378 L 382.163 224.153 L 381.346 222.928 L 381.346 222.112 L 378.896 217.212 L 378.080 216.396 L 376.855 213.946 L 375.222 212.313 L 375.222 211.904 L 368.689 205.372 L 368.281 205.372 L 364.198 202.105 L 361.748 200.880 L 360.931 200.064 L 359.707 199.656 L 358.890 198.839 L 353.990 196.389 L 353.174 196.389 L 351.132 195.164 L 350.316 195.164 L 349.091 194.348 L 348.274 194.348 L 347.866 193.939 L 347.049 193.939 L 346.641 193.531 L 344.600 193.123 L 343.375 192.306 L 340.925 191.898 L 339.292 191.081 L 338.067 191.081 L 337.659 190.673 L 336.434 190.673 L 336.026 190.265 L 334.801 190.265 L 334.392 189.856 L 332.759 189.856 L 332.351 189.448 L 331.126 189.448 L 330.718 189.040 L 327.043 188.632 L 326.635 188.223 L 322.144 187.815 L 321.735 187.407 L 313.569 186.998 L 313.161 186.590 L 306.628 186.590 L 306.220 186.182 L 293.971 186.182 L 293.563 186.590 L 286.214 186.590 L 285.805 186.998 L 277.640 187.407 L 277.231 187.815 L 274.373 187.815 L 273.965 188.223 L 269.882 188.223 L 269.065 187.407 L 269.065 186.590 Z
    M 115.139 256.408 L 115.955 255.592 L 117.589 255.183 L 118.405 256.000 L 118.405 257.633 L 117.180 260.083 L 117.180 260.900 L 116.772 261.308 L 116.772 262.124 L 116.364 262.533 L 116.364 263.349 L 115.955 263.758 L 115.955 264.574 L 115.139 266.207 L 115.139 267.841 L 114.730 268.249 L 114.730 269.474 L 114.322 269.882 L 114.322 271.923 L 113.914 272.332 L 113.506 280.498 L 113.914 280.906 L 113.914 284.172 L 114.322 284.581 L 114.322 286.622 L 114.730 287.030 L 114.730 287.847 L 115.139 288.255 L 115.139 289.072 L 115.547 289.480 L 116.364 292.746 L 118.405 296.829 L 119.222 297.646 L 120.038 299.279 L 122.896 302.545 L 122.896 302.954 L 127.796 307.853 L 128.204 307.853 L 129.837 309.486 L 130.246 309.486 L 133.104 311.936 L 135.553 313.161 L 136.370 313.978 L 146.986 319.285 L 147.802 319.285 L 150.252 320.510 L 152.702 320.919 L 153.110 321.327 L 153.927 321.327 L 155.560 322.144 L 156.785 322.144 L 157.193 322.552 L 158.418 322.552 L 158.826 322.960 L 160.051 322.960 L 160.459 323.368 L 161.684 323.368 L 162.093 323.777 L 163.726 323.777 L 164.134 324.185 L 165.767 324.185 L 166.175 324.593 L 167.809 324.593 L 168.217 325.002 L 169.850 325.002 L 170.258 325.410 L 172.300 325.410 L 172.708 325.818 L 179.241 326.226 L 179.649 326.635 L 186.590 326.635 L 186.998 327.043 L 200.064 327.043 L 200.472 326.635 L 207.413 326.635 L 207.821 327.043 L 207.821 328.676 L 206.188 329.901 L 204.963 329.901 L 203.330 330.718 L 201.697 330.718 L 200.064 331.534 L 198.431 331.534 L 198.022 331.943 L 196.389 331.943 L 195.981 332.351 L 194.348 332.351 L 193.939 332.759 L 191.898 332.759 L 191.490 333.167 L 189.448 333.167 L 189.040 333.576 L 186.182 333.576 L 185.774 333.984 L 182.507 333.984 L 182.099 334.392 L 177.608 334.392 L 177.199 334.801 L 165.359 334.801 L 164.951 334.392 L 160.051 334.392 L 159.643 333.984 L 156.785 333.984 L 156.376 333.576 L 153.927 333.576 L 153.518 333.167 L 151.885 333.167 L 151.477 332.759 L 147.802 332.351 L 147.394 331.943 L 144.536 331.534 L 144.128 331.126 L 143.311 331.126 L 141.678 330.309 L 140.453 330.309 L 140.045 329.901 L 138.003 329.493 L 136.778 328.676 L 135.962 328.676 L 134.737 327.860 L 133.920 327.860 L 127.388 324.593 L 126.571 323.777 L 125.346 323.368 L 124.530 322.552 L 121.671 320.919 L 120.038 319.285 L 119.630 319.285 L 117.997 317.652 L 117.589 317.652 L 113.914 313.978 L 113.914 313.569 L 111.872 311.528 L 111.056 309.895 L 109.831 308.670 L 105.748 300.504 L 105.748 299.687 L 104.931 298.054 L 104.931 296.829 L 104.523 296.421 L 104.523 295.196 L 104.115 294.788 L 104.115 293.155 L 103.707 292.746 L 103.707 283.356 L 104.115 282.947 L 104.115 280.906 L 104.523 280.498 L 104.523 278.864 L 104.931 278.456 L 104.931 277.231 L 105.748 275.598 L 105.748 274.373 L 106.565 273.148 L 106.565 272.332 L 107.789 269.882 L 107.789 269.065 L 110.239 264.166 L 111.056 263.349 L 111.872 261.308 L 112.689 260.491 L 113.097 259.266 L 114.322 258.041 Z
    M 160.868 135.145 L 161.684 135.145 L 163.317 136.778 L 163.726 140.045 L 164.134 140.453 L 164.134 142.086 L 164.542 142.494 L 164.951 145.352 L 165.767 146.986 L 165.767 148.211 L 166.584 149.435 L 166.584 150.252 L 167.809 152.702 L 169.442 154.335 L 173.525 156.376 L 174.750 156.376 L 175.158 156.785 L 175.974 156.785 L 177.608 157.601 L 178.833 157.601 L 179.241 158.010 L 180.466 158.010 L 180.874 158.418 L 182.099 158.418 L 182.507 158.826 L 184.957 159.234 L 186.590 160.459 L 186.590 162.093 L 185.774 162.909 L 184.549 162.909 L 184.140 163.317 L 182.915 163.317 L 182.507 163.726 L 181.282 163.726 L 180.874 164.134 L 179.649 164.134 L 179.241 164.542 L 178.016 164.542 L 177.608 164.951 L 176.383 164.951 L 175.974 165.359 L 173.525 165.767 L 169.442 167.809 L 167.809 169.442 L 166.584 171.892 L 166.584 172.708 L 165.767 173.933 L 165.767 175.158 L 164.951 176.791 L 164.951 178.016 L 164.542 178.424 L 164.542 179.649 L 164.134 180.057 L 164.134 181.282 L 163.726 181.691 L 163.726 183.324 L 163.317 183.732 L 163.317 185.365 L 162.093 186.590 L 160.868 186.590 L 159.643 185.774 L 159.234 183.324 L 158.826 182.915 L 158.826 181.691 L 158.418 181.282 L 158.418 180.057 L 158.010 179.649 L 158.010 178.424 L 157.601 178.016 L 157.601 176.791 L 156.785 175.158 L 156.785 173.933 L 155.968 172.708 L 155.968 171.892 L 154.743 169.442 L 153.110 167.809 L 152.702 167.809 L 151.885 166.992 L 151.069 166.992 L 147.802 165.359 L 146.577 165.359 L 146.169 164.951 L 144.944 164.951 L 144.536 164.542 L 143.311 164.542 L 142.903 164.134 L 141.678 164.134 L 141.270 163.726 L 140.045 163.726 L 139.636 163.317 L 138.003 163.317 L 137.595 162.909 L 136.778 162.909 L 135.553 161.684 L 135.553 160.459 L 137.187 159.234 L 138.003 159.234 L 138.411 158.826 L 140.045 158.826 L 140.453 158.418 L 141.678 158.418 L 142.086 158.010 L 143.311 158.010 L 143.719 157.601 L 144.944 157.601 L 145.352 157.193 L 147.802 156.785 L 149.027 155.968 L 149.844 155.968 L 151.069 155.152 L 151.885 155.152 L 154.743 152.702 L 155.968 150.252 L 155.968 149.435 L 156.376 149.027 L 156.376 148.211 L 156.785 147.802 L 156.785 146.986 L 157.601 145.352 L 157.601 144.128 L 158.010 143.719 L 158.010 142.494 L 158.418 142.086 L 158.418 140.861 L 158.826 140.453 L 159.234 137.187 Z
    M 297.646 334.392 L 298.871 334.392 L 299.687 335.209 L 299.687 336.434 L 300.096 336.842 L 300.096 338.475 L 300.504 338.884 L 300.912 342.150 L 301.321 342.558 L 301.321 343.375 L 301.729 343.783 L 301.729 344.600 L 302.545 346.233 L 303.770 347.458 L 305.404 347.866 L 305.812 348.274 L 306.628 348.274 L 307.037 348.683 L 307.853 348.683 L 308.262 349.091 L 309.078 349.091 L 309.486 349.499 L 313.161 349.907 L 315.203 351.132 L 315.203 351.949 L 313.978 353.174 L 313.161 353.174 L 312.753 353.582 L 310.711 353.582 L 310.303 353.990 L 309.078 353.990 L 308.670 354.399 L 307.445 354.399 L 307.037 354.807 L 304.995 355.215 L 304.179 355.624 L 302.137 357.665 L 302.137 358.482 L 301.729 358.890 L 301.729 359.707 L 300.912 361.340 L 300.504 364.198 L 300.096 364.606 L 300.096 366.239 L 299.687 366.648 L 299.687 367.464 L 298.463 368.689 L 297.646 368.689 L 296.829 367.872 L 296.421 367.056 L 296.013 363.789 L 295.604 363.381 L 295.604 362.156 L 295.196 361.748 L 295.196 360.523 L 294.380 359.298 L 293.971 357.665 L 291.930 355.624 L 290.297 355.215 L 289.888 354.807 L 288.663 354.807 L 287.030 353.990 L 283.356 353.582 L 280.906 352.357 L 280.906 351.132 L 281.722 350.316 L 282.947 350.316 L 283.356 349.907 L 284.581 349.907 L 284.989 349.499 L 288.255 349.091 L 288.663 348.683 L 290.705 348.274 L 292.338 347.458 L 293.563 346.233 L 294.788 343.783 L 294.788 342.967 L 295.196 342.558 L 295.196 341.333 L 295.604 340.925 L 295.604 339.700 L 296.013 339.292 L 296.013 338.067 L 296.421 337.659 L 296.421 336.026 Z
    M 384.204 144.128 L 385.021 144.128 L 385.837 144.944 L 387.470 152.293 L 389.104 154.335 L 390.737 155.152 L 391.962 155.152 L 392.370 155.560 L 393.595 155.560 L 394.003 155.968 L 395.636 155.968 L 396.045 156.376 L 396.861 156.376 L 397.678 157.193 L 397.678 158.010 L 396.861 158.826 L 391.962 159.643 L 391.553 160.051 L 389.512 160.459 L 388.695 161.276 L 388.287 161.276 L 387.470 162.909 L 387.470 163.726 L 387.062 164.134 L 387.062 165.359 L 386.654 165.767 L 386.246 168.625 L 385.429 170.258 L 384.204 170.258 L 383.388 169.442 L 382.979 166.992 L 382.571 166.584 L 382.571 165.359 L 382.163 164.951 L 382.163 164.134 L 381.754 163.726 L 381.754 162.909 L 380.938 161.276 L 378.488 160.051 L 377.671 160.051 L 377.263 159.643 L 372.364 158.826 L 371.547 158.010 L 371.547 157.193 L 373.180 155.968 L 375.222 155.968 L 375.630 155.560 L 376.855 155.560 L 380.938 153.518 L 382.163 151.069 L 382.163 150.252 L 382.571 149.844 L 383.388 144.944 Z
    M 109.423 216.396 L 111.464 216.396 L 111.872 216.804 L 113.506 217.212 L 115.139 218.845 L 115.955 220.478 L 115.955 223.745 L 115.139 225.378 L 113.506 227.011 L 111.872 227.828 L 109.014 227.828 L 107.381 227.011 L 105.340 224.970 L 104.931 224.153 L 104.931 220.070 L 105.340 219.254 L 107.381 217.212 L 109.014 216.804 Z
    M 117.180 349.907 L 119.222 349.907 L 119.630 350.316 L 121.263 350.724 L 122.896 352.357 L 123.713 353.990 L 123.713 357.257 L 122.896 358.890 L 121.671 360.115 L 120.038 360.931 L 119.222 360.931 L 118.813 361.340 L 117.589 361.340 L 117.180 360.931 L 115.955 360.931 L 115.139 360.523 L 113.097 358.482 L 112.689 356.848 L 112.281 356.440 L 112.281 354.807 L 112.689 354.399 L 113.097 352.766 L 115.139 350.724 L 116.772 350.316 Z
    M 294.380 143.719 L 297.238 144.128 L 299.687 146.169 L 300.504 147.802 L 300.504 151.069 L 299.687 152.702 L 297.238 154.743 L 296.013 154.743 L 295.604 155.152 L 294.380 155.152 L 293.971 154.743 L 293.155 154.743 L 291.522 153.927 L 289.888 151.885 L 289.888 151.069 L 289.480 150.660 L 289.480 148.211 L 290.705 145.761 L 291.522 144.944 L 293.155 144.128 L 293.971 144.128 Z
    M 373.997 316.019 L 377.671 316.019 L 379.305 316.836 L 380.530 318.061 L 381.346 319.694 L 381.346 322.960 L 380.530 324.593 L 378.896 326.226 L 377.263 326.635 L 376.855 327.043 L 375.222 327.043 L 374.813 326.635 L 373.180 326.226 L 371.139 324.185 L 370.730 322.552 L 370.322 322.144 L 370.322 320.510 L 370.730 320.102 L 371.139 318.469 L 373.180 316.427 Z
  "/>
</svg>
