<?xml version="1.0" encoding="UTF-8" standalone="no"?>
<!DOCTYPE svg PUBLIC "-//W3C//DTD SVG 1.1//EN" "http://www.w3.org/Graphics/SVG/1.1/DTD/svg11.dtd">
<svg width="100%" height="100%" viewBox="0 0 128 128" version="1.1" xmlns="http://www.w3.org/2000/svg" xmlns:xlink="http://www.w3.org/1999/xlink" xml:space="preserve" xmlns:serif="http://www.serif.com/" style="fill-rule:evenodd;clip-rule:evenodd;stroke-linejoin:round;stroke-miterlimit:2;">
    <rect x="-15.351" y="-13.441" width="161.23" height="159.655" style="fill:rgb(6,0,0);"/>
    <g transform="matrix(1,0,0,1,-2.95504,1.39976)">
        <circle cx="66.955" cy="62.6" r="19.985" style="fill:white;"/>
    </g>
    <g transform="matrix(0.286543,0.286543,-0.475573,0.475573,111.542,-8.66835)">
        <path d="M90.166,29.8L63.145,101.466C63.145,102.205 62.149,102.804 60.924,102.804L28.35,102.804C27.124,102.804 26.129,102.205 26.129,101.466L-4.718,29.8C-4.978,29.175 -4.21,28.738 -2.497,28.462C33.977,22.571 51.761,22.641 87.945,28.462C89.611,28.73 90.436,29.148 90.166,29.8Z" style="fill:white;"/>
    </g>
    <g transform="matrix(-0.286543,-0.286543,0.475573,-0.475573,15.9699,136.229)">
        <path d="M90.166,29.8L63.145,101.466C63.145,102.205 62.149,102.804 60.924,102.804L28.35,102.804C27.124,102.804 26.129,102.205 26.129,101.466L-4.718,29.8C-4.978,29.175 -4.21,28.738 -2.497,28.462C33.977,22.571 51.761,22.641 87.945,28.462C89.611,28.73 90.436,29.148 90.166,29.8Z" style="fill:white;"/>
    </g>
</svg>
